<svg width="150" height="37" viewBox="0 0 150 37" fill="none" xmlns="http://www.w3.org/2000/svg">
<path d="M61.7858 26.0994H57.4631V7.57961H65.4495C66.3457 7.57961 67.1681 7.75698 67.9166 8.11173C68.6617 8.46995 69.3066 8.94816 69.8513 9.54636C70.396 10.148 70.8177 10.8228 71.1165 11.5705C71.4152 12.3183 71.5645 13.0834 71.5645 13.8659C71.5645 14.9267 71.315 15.9353 70.816 16.8917C70.3134 17.8481 69.6193 18.6254 68.7337 19.2236C67.8446 19.8253 66.7938 20.1261 65.5813 20.1261H61.7858V26.0994ZM61.7858 11.3357V16.3961H65.3178C65.6516 16.3961 65.9591 16.3005 66.2403 16.1092C66.5214 15.9179 66.7499 15.631 66.9256 15.2484C67.1013 14.8658 67.1892 14.3963 67.1892 13.8398C67.1892 13.266 67.089 12.7912 66.8887 12.4156C66.6848 12.0435 66.4301 11.7705 66.1243 11.5966C65.815 11.4227 65.4935 11.3357 65.1596 11.3357H61.7858ZM82.3185 12.2226V15.9787C81.2994 15.9787 80.3768 16.1387 79.551 16.4587C78.7251 16.7821 78.1276 17.2569 77.7586 17.8829V26.0994H73.5414V12.4052H77.416V15.1701C77.8904 14.2485 78.5054 13.5268 79.261 13.0051C80.0166 12.4835 80.8073 12.2139 81.6332 12.1965C81.8265 12.1965 81.9706 12.1965 82.0655 12.1965C82.1639 12.1965 82.2482 12.2052 82.3185 12.2226ZM90.5632 26.3603C89.3859 26.3603 88.3369 26.169 87.4161 25.7864C86.4918 25.4039 85.7152 24.8822 85.0861 24.2214C84.45 23.5606 83.9703 22.8041 83.647 21.952C83.3236 21.1 83.162 20.2044 83.162 19.2654C83.162 18.3089 83.3236 17.4047 83.647 16.5526C83.9703 15.7005 84.45 14.9441 85.0861 14.2833C85.7152 13.6225 86.4918 13.1008 87.4161 12.7182C88.3369 12.3356 89.3859 12.1444 90.5632 12.1444C91.7441 12.1444 92.7914 12.3356 93.7051 12.7182C94.6188 13.1008 95.392 13.6225 96.0246 14.2833C96.6536 14.9441 97.1369 15.7005 97.4743 16.5526C97.8081 17.4047 97.975 18.3089 97.975 19.2654C97.975 20.2044 97.8081 21.1 97.4743 21.952C97.1369 22.8041 96.6536 23.5606 96.0246 24.2214C95.392 24.8822 94.6188 25.4039 93.7051 25.7864C92.7914 26.169 91.7441 26.3603 90.5632 26.3603ZM87.4794 19.2654C87.4794 19.9783 87.6164 20.6044 87.8906 21.1434C88.1647 21.6825 88.5302 22.0999 88.987 22.3955C89.4439 22.6911 89.9693 22.8389 90.5632 22.8389C91.1431 22.8389 91.6668 22.6859 92.1342 22.3798C92.6016 22.0772 92.9671 21.6564 93.2306 21.1173C93.4942 20.5783 93.626 19.9609 93.626 19.2654C93.626 18.5524 93.4942 17.9264 93.2306 17.3873C92.9671 16.8482 92.6016 16.4309 92.1342 16.1352C91.6668 15.8396 91.1431 15.6918 90.5632 15.6918C89.9693 15.6918 89.4439 15.8396 88.987 16.1352C88.5302 16.4309 88.1647 16.8482 87.8906 17.3873C87.6164 17.9264 87.4794 18.5524 87.4794 19.2654ZM99.314 31.3685C98.6287 31.3685 97.9663 31.2589 97.3266 31.0398C96.6835 30.8242 96.1072 30.499 95.5976 30.0643L97.3635 27.2211C97.5393 27.4124 97.7554 27.5515 98.012 27.6384C98.265 27.7254 98.5233 27.7688 98.7869 27.7688C99.0504 27.7688 99.2877 27.7132 99.4985 27.6019C99.7094 27.4871 99.8763 27.3167 99.9993 27.0906C100.122 26.8646 100.184 26.6124 100.184 26.3342V12.4052H104.401V26.0212C104.401 27.0646 104.178 27.9914 103.732 28.8018C103.282 29.6086 102.676 30.2381 101.913 30.6903C101.147 31.1424 100.28 31.3685 99.314 31.3685ZM104.401 10.8401H100.184V7.05792H104.401V10.8401ZM113.89 26.3603C112.713 26.3603 111.667 26.1725 110.753 25.7969C109.84 25.4247 109.061 24.917 108.418 24.2735C107.778 23.6301 107.292 22.8859 106.958 22.0407C106.624 21.1991 106.457 20.3174 106.457 19.3958C106.457 18.0742 106.752 16.8691 107.343 15.7805C107.93 14.6954 108.776 13.8172 109.883 13.146C110.991 12.4782 112.326 12.1444 113.89 12.1444C115.454 12.1444 116.786 12.4748 117.886 13.1356C118.982 13.7964 119.82 14.6606 120.4 15.7283C120.98 16.7995 121.27 17.9611 121.27 19.2132C121.27 19.4566 121.258 19.6949 121.233 19.9279C121.205 20.1644 121.182 20.3696 121.165 20.5435H110.938C110.991 21.1521 111.161 21.6651 111.449 22.0825C111.741 22.4998 112.115 22.8163 112.572 23.0319C113.029 23.251 113.512 23.3606 114.022 23.3606C114.654 23.3606 115.246 23.2128 115.798 22.9172C116.353 22.6215 116.737 22.2216 116.947 21.7173L120.532 22.7085C120.181 23.4215 119.685 24.051 119.045 24.597C118.402 25.1465 117.647 25.5778 116.779 25.8908C115.907 26.2038 114.944 26.3603 113.89 26.3603ZM110.832 17.9872H116.842C116.772 17.4134 116.605 16.9126 116.341 16.4848C116.078 16.0605 115.726 15.7301 115.287 15.4936C114.848 15.2606 114.364 15.144 113.837 15.144C113.292 15.144 112.804 15.2606 112.372 15.4936C111.943 15.7301 111.597 16.0605 111.333 16.4848C111.07 16.9126 110.903 17.4134 110.832 17.9872ZM121.27 12.4052H125.619L128.07 16.2657L128.334 16.7613L128.598 16.2657L131.049 12.4052H135.398L130.759 19.2132L135.503 26.0994H131.154L128.571 22.2651L128.334 21.7695L128.097 22.2651L125.514 26.0994H121.165L125.909 19.2914L121.27 12.4052ZM135.846 22.0042C135.846 21.1 136.101 20.3087 136.61 19.6305C137.12 18.9524 137.823 18.4168 138.719 18.0238C139.615 17.6342 140.643 17.4395 141.803 17.4395C142.365 17.4395 142.919 17.4882 143.463 17.5855C144.008 17.6794 144.482 17.8133 144.887 17.9872V17.3873C144.887 16.6395 144.658 16.0657 144.201 15.6657C143.744 15.2658 143.05 15.0658 142.119 15.0658C141.346 15.0658 140.62 15.1962 139.942 15.4571C139.267 15.7179 138.552 16.0918 137.796 16.5787L136.531 13.9181C137.445 13.3268 138.397 12.8834 139.388 12.5878C140.383 12.2922 141.434 12.1444 142.541 12.1444C144.614 12.1444 146.226 12.6347 147.375 13.6155C148.528 14.5998 149.104 16.0222 149.104 17.8829V21.4564C149.104 21.8738 149.169 22.1642 149.299 22.3277C149.432 22.4946 149.666 22.5955 150 22.6302V26.0994C149.649 26.169 149.318 26.2212 149.009 26.2559C148.703 26.2907 148.436 26.3081 148.208 26.3081C147.417 26.3081 146.814 26.1516 146.4 25.8386C145.988 25.5256 145.73 25.0995 145.625 24.5605L145.546 23.9605C144.931 24.7431 144.196 25.3378 143.342 25.7447C142.492 26.1551 141.601 26.3603 140.669 26.3603C139.756 26.3603 138.933 26.169 138.202 25.7864C137.475 25.4039 136.9 24.8822 136.479 24.2214C136.057 23.5606 135.846 22.8215 135.846 22.0042ZM144.228 22.5259C144.421 22.3694 144.579 22.1955 144.702 22.0042C144.825 21.8129 144.887 21.6303 144.887 21.4564V20.2305C144.535 20.0914 144.143 19.9818 143.711 19.9018C143.282 19.8253 142.883 19.787 142.514 19.787C141.741 19.787 141.1 19.9557 140.59 20.2931C140.081 20.6339 139.826 21.0826 139.826 21.639C139.826 21.952 139.914 22.239 140.09 22.4998C140.265 22.7607 140.506 22.9693 140.812 23.1258C141.121 23.2823 141.486 23.3606 141.908 23.3606C142.33 23.3606 142.752 23.2823 143.173 23.1258C143.595 22.9693 143.947 22.7693 144.228 22.5259Z" fill="#13667F"/>
<g clip-path="url(#clip0_267_99)">
<path d="M11.0574 36.8658C4.9504 36.8658 0 31.9144 0 25.8061V11.0597C0 4.95145 4.9504 0 11.0574 0H25.8006C31.9076 0 36.858 4.95145 36.858 11.0597V25.8061C36.858 31.9144 31.9076 36.8658 25.8006 36.8658H11.0574Z" fill="#13667F"/>
<g clip-path="url(#clip1_267_99)">
<g clip-path="url(#clip2_267_99)">
<path d="M24.4281 20.9204L24.5757 20.7728C25.1344 20.2142 25.3526 19.3997 25.1482 18.6362L23.7704 13.4929C23.5658 12.7296 22.9699 12.1333 22.2068 11.9289L17.0645 10.5508C16.4556 10.3877 15.8142 10.4945 15.2961 10.8277L20.934 16.4668L16.5068 20.8948L10.8688 15.2559C10.5355 15.7741 10.4285 16.4156 10.592 17.0247L11.9698 22.168C12.1744 22.9313 12.7704 23.5276 13.5334 23.732L18.6757 25.1101C19.4388 25.3147 20.2531 25.0963 20.8118 24.5375L22.0778 23.2712L24.4281 20.9204ZM21.0582 18.6278L22.7334 20.3033L22.2643 20.7725L20.5891 19.097L21.0582 18.6278ZM20.3417 22.6955L18.6665 21.0199L19.1356 20.5507L20.8108 22.2263L20.3417 22.6955ZM21.2777 21.7592L19.6026 20.0837L20.0717 19.6145L21.7469 21.29L21.2777 21.7592Z" fill="white"/>
<path d="M25.0202 21.3954L21.4089 25.0074L25.893 29.4926C27.2906 28.4994 28.5003 27.2587 29.4583 25.8344L25.0202 21.3954Z" fill="white"/>
<path d="M14.071 13.4066V8.01271C14.071 7.65948 13.7845 7.37317 13.4316 7.37317H8.03882C7.68566 7.37317 7.39941 7.65972 7.39941 8.01271V13.4066C7.39941 13.7598 7.68566 14.0461 8.03882 14.0461H13.4316C13.7847 14.0461 14.071 13.7598 14.071 13.4066ZM13.083 12.6079C13.083 12.8565 12.8813 13.058 12.633 13.058H8.83741C8.58884 13.058 8.38738 12.8562 8.38738 12.6079V8.81146C8.38738 8.56285 8.58909 8.36134 8.83741 8.36134H12.633C12.8815 8.36134 13.083 8.56309 13.083 8.81146V12.6079Z" fill="white"/>
<path d="M12.0089 9.0946H9.42666C9.25733 9.0946 9.12061 9.23184 9.12061 9.40072V11.9835C9.12061 12.1529 9.25781 12.2896 9.42666 12.2896H12.0089C12.1782 12.2896 12.315 12.1524 12.315 11.9835V9.40072C12.3152 9.23184 12.1782 9.0946 12.0089 9.0946Z" fill="white"/>
</g>
</g>
</g>
<defs>
<clipPath id="clip0_267_99">
<rect width="36.8579" height="36.8658" fill="white"/>
</clipPath>
<clipPath id="clip1_267_99">
<rect width="22.059" height="22.1195" fill="white" transform="translate(7.39941 7.37317)"/>
</clipPath>
<clipPath id="clip2_267_99">
<rect width="22.059" height="22.1195" fill="white" transform="translate(7.39941 7.37317)"/>
</clipPath>
</defs>
</svg>
