<svg width="190" height="48" viewBox="0 0 190 48" fill="none" xmlns="http://www.w3.org/2000/svg">
<g clip-path="url(#clip0_10_141)">
<g clip-path="url(#clip1_10_141)">
<path d="M14.1 47.0064C6.31255 47.0064 0 40.6929 0 32.9045V14.1019C0 6.31342 6.31255 0 14.1 0H32.8999C40.6873 0 46.9999 6.31342 46.9999 14.1019V32.9045C46.9999 40.6929 40.6873 47.0064 32.8999 47.0064H14.1Z" fill="#13667F"/>
<g clip-path="url(#clip2_10_141)">
<g clip-path="url(#clip3_10_141)">
<path d="M31.1501 26.675L31.3383 26.4867C32.0508 25.7745 32.3289 24.736 32.0683 23.7625L30.3114 17.2044C30.0505 16.2312 29.2906 15.4709 28.3175 15.2102L21.7603 13.453C20.9837 13.2451 20.1659 13.3812 19.5052 13.8061L26.6945 20.9964L21.049 26.6423L13.8597 19.4523C13.4347 20.1131 13.2982 20.931 13.5067 21.7077L15.2637 28.2658C15.5246 29.239 16.2845 29.9993 17.2576 30.2599L23.8148 32.0172C24.7878 32.2781 25.8262 31.9996 26.5387 31.287L28.153 29.6725L31.1501 26.675ZM26.8529 23.7517L28.989 25.8882L28.3908 26.4864L26.2547 24.35L26.8529 23.7517ZM25.9392 28.9383L23.8031 26.8019L24.4013 26.2036L26.5374 28.3401L25.9392 28.9383ZM27.1328 27.7446L24.9967 25.6081L25.5949 25.0099L27.731 27.1463L27.1328 27.7446Z" fill="white"/>
<path d="M31.905 27.2806L27.3 31.8862L33.0179 37.6052C34.8002 36.3388 36.3427 34.7568 37.5644 32.9408L31.905 27.2806Z" fill="white"/>
<path d="M17.9429 17.0944V10.2168C17.9429 9.76637 17.5776 9.40131 17.1275 9.40131H10.2509C9.80056 9.40131 9.43555 9.76668 9.43555 10.2168V17.0944C9.43555 17.5448 9.80056 17.9098 10.2509 17.9098H17.1275C17.5779 17.9098 17.9429 17.5448 17.9429 17.0944ZM16.6831 16.0759C16.6831 16.3929 16.4259 16.6498 16.1092 16.6498H11.2692C10.9523 16.6498 10.6954 16.3926 10.6954 16.0759V11.2352C10.6954 10.9182 10.9526 10.6613 11.2692 10.6613H16.1092C16.4262 10.6613 16.6831 10.9185 16.6831 11.2352V16.0759Z" fill="white"/>
<path d="M15.3133 11.5963H12.0205C11.8046 11.5963 11.6302 11.7712 11.6302 11.9866V15.2798C11.6302 15.4958 11.8052 15.6701 12.0205 15.6701H15.3133C15.5292 15.6701 15.7036 15.4952 15.7036 15.2798V11.9866C15.7039 11.7712 15.5292 11.5963 15.3133 11.5963Z" fill="white"/>
</g>
</g>
</g>
</g>
<g clip-path="url(#clip4_10_141)">
<g clip-path="url(#clip5_10_141)">
<path d="M72.0035 24.0976C72.0035 22.6 72.2799 21.1302 72.8328 19.6879C73.3856 18.2503 74.1919 16.944 75.2515 15.769C76.3111 14.5941 77.6011 13.6541 79.1215 12.9491C80.6418 12.2487 82.3695 11.8985 84.3045 11.8985C86.6081 11.8985 88.6076 12.3938 90.303 13.3845C91.9938 14.3752 93.2538 15.6654 94.0831 17.255L89.7294 20.2962C89.3608 19.4207 88.8725 18.741 88.2643 18.2572C87.6516 17.7734 86.9835 17.4324 86.2602 17.2343C85.5323 17.0408 84.8343 16.944 84.1663 16.944C83.0836 16.944 82.1392 17.156 81.3329 17.5799C80.5267 18.0084 79.8586 18.5798 79.3288 19.294C78.799 20.0082 78.4074 20.803 78.154 21.6785C77.9006 22.554 77.7739 23.4294 77.7739 24.3049C77.7739 25.2725 77.9236 26.2056 78.2231 27.1041C78.5226 28.0026 78.9556 28.7975 79.5223 29.4886C80.0844 30.1798 80.7685 30.7258 81.5748 31.1267C82.381 31.5322 83.2679 31.7349 84.2354 31.7349C84.9265 31.7349 85.6291 31.6197 86.3432 31.3893C87.0573 31.159 87.7207 30.7949 88.3334 30.2973C88.9416 29.8043 89.4069 29.1546 89.7294 28.3482L94.3596 31.0783C93.8758 32.2763 93.0811 33.3016 91.9754 34.154C90.8697 35.0064 89.6211 35.6561 88.2298 36.1031C86.8338 36.5547 85.4563 36.7804 84.0972 36.7804C82.3234 36.7804 80.6948 36.4164 79.2113 35.6884C77.7232 34.965 76.4447 33.9973 75.3759 32.7855C74.3024 31.5783 73.4732 30.219 72.888 28.7076C72.2983 27.2009 72.0035 25.6642 72.0035 24.0976ZM108.25 18.1881V23.1645C106.914 23.1645 105.705 23.3765 104.622 23.8004C103.539 24.2289 102.756 24.8578 102.272 25.6872V36.5731H96.7437V18.43H101.823V22.0932C102.445 20.8721 103.251 19.916 104.242 19.2249C105.232 18.5337 106.269 18.1766 107.352 18.1536C107.605 18.1536 107.794 18.1536 107.918 18.1536C108.047 18.1536 108.158 18.1651 108.25 18.1881ZM109.287 31.1474C109.287 29.9494 109.618 28.9012 110.282 28.0026C110.954 27.1041 111.878 26.3945 113.053 25.8739C114.228 25.3578 115.573 25.0998 117.089 25.0998C117.826 25.0998 118.554 25.1643 119.273 25.2933C119.987 25.4177 120.606 25.5951 121.132 25.8255V25.0306C121.132 24.04 120.832 23.2797 120.233 22.7498C119.634 22.2199 118.724 21.955 117.503 21.955C116.494 21.955 115.545 22.1277 114.656 22.4733C113.772 22.8189 112.834 23.3142 111.844 23.9593L110.178 20.4344C111.381 19.6511 112.631 19.0636 113.931 18.6719C115.23 18.2803 116.607 18.0844 118.063 18.0844C120.781 18.0844 122.894 18.7341 124.4 20.0335C125.907 21.3375 126.66 23.2221 126.66 25.6872V30.4217C126.66 30.9747 126.748 31.3594 126.923 31.576C127.093 31.7971 127.4 31.9308 127.842 31.9768V36.5731C127.381 36.6652 126.948 36.7344 126.543 36.7804C126.142 36.8265 125.792 36.8495 125.492 36.8495C124.456 36.8495 123.665 36.6422 123.122 36.2275C122.583 35.8128 122.242 35.2484 122.099 34.5341L121.995 33.7393C121.189 34.7761 120.229 35.564 119.114 36.1031C117.994 36.6468 116.824 36.9187 115.603 36.9187C114.405 36.9187 113.329 36.6652 112.376 36.1584C111.422 35.6515 110.666 34.9604 110.109 34.0849C109.561 33.2094 109.287 32.2303 109.287 31.1474ZM120.268 31.8386C120.526 31.6313 120.733 31.4009 120.89 31.1474C121.051 30.894 121.132 30.6521 121.132 30.4217V28.7975C120.671 28.6132 120.159 28.468 119.597 28.362C119.035 28.2607 118.51 28.21 118.022 28.21C117.013 28.21 116.174 28.4335 115.506 28.8804C114.834 29.332 114.497 29.9264 114.497 30.6636C114.497 31.0783 114.612 31.4585 114.843 31.804C115.073 32.1496 115.391 32.4261 115.797 32.6334C116.197 32.8408 116.676 32.9445 117.234 32.9445C117.787 32.9445 118.337 32.8408 118.886 32.6334C119.438 32.4261 119.899 32.1611 120.268 31.8386ZM137.337 36.5731H131.809V24.0976H129.493V19.916H131.809V18.43C131.809 16.9095 132.069 15.5962 132.589 14.4904C133.105 13.3845 133.843 12.5252 134.801 11.9123C135.755 11.3041 136.865 11 138.132 11C138.915 11 139.698 11.0922 140.481 11.2765C141.265 11.4608 142.059 11.7257 142.866 12.0713L141.864 16.2183C141.518 16.057 141.115 15.9234 140.654 15.8174C140.194 15.716 139.767 15.6654 139.376 15.6654C138.708 15.6654 138.201 15.8773 137.855 16.3012C137.51 16.7298 137.337 17.3702 137.337 18.2227V19.916H141.553V24.0976H137.337V36.5731ZM154.614 31.2166L155.685 35.6055C155.178 35.8128 154.621 36.0202 154.013 36.2275C153.4 36.4348 152.759 36.603 152.091 36.732C151.423 36.8565 150.767 36.9187 150.122 36.9187C149.2 36.9187 148.355 36.762 147.586 36.4487C146.812 36.14 146.201 35.6285 145.754 34.9143C145.303 34.2001 145.077 33.2555 145.077 32.0805V22.6116H142.762V18.43H145.077V12.6588H150.606V18.43H154.303V22.6116H150.606V30.1798C150.606 30.7788 150.755 31.2096 151.055 31.4723C151.354 31.7395 151.734 31.8732 152.195 31.8732C152.587 31.8732 153.008 31.804 153.46 31.6658C153.907 31.5276 154.291 31.3778 154.614 31.2166ZM166.293 36.9187C164.75 36.9187 163.379 36.6698 162.181 36.1722C160.983 35.6792 159.963 35.0064 159.12 34.154C158.281 33.3016 157.643 32.3155 157.205 31.1958C156.768 30.0807 156.549 28.9127 156.549 27.6916C156.549 25.9407 156.934 24.3441 157.703 22.9018C158.477 21.4642 159.59 20.3008 161.041 19.4115C162.492 18.5268 164.243 18.0844 166.293 18.0844C168.343 18.0844 170.087 18.5222 171.524 19.3976C172.966 20.2731 174.067 21.4182 174.828 22.8327C175.588 24.2519 175.968 25.7909 175.968 27.4497C175.968 27.7723 175.949 28.0879 175.913 28.3966C175.88 28.7099 175.853 28.9818 175.83 29.2122H162.423C162.492 30.0185 162.715 30.6982 163.093 31.2511C163.476 31.804 163.966 32.2234 164.565 32.509C165.164 32.7993 165.798 32.9445 166.466 32.9445C167.295 32.9445 168.071 32.7486 168.795 32.357C169.523 31.9653 170.025 31.4354 170.301 30.7673L175 32.0805C174.54 33.0251 173.888 33.8591 173.045 34.5825C172.206 35.3106 171.216 35.8819 170.073 36.2966C168.935 36.7113 167.675 36.9187 166.293 36.9187ZM162.285 25.8255H170.163C170.071 25.0652 169.852 24.4017 169.506 23.8349C169.161 23.2728 168.7 22.835 168.124 22.5217C167.548 22.213 166.915 22.0586 166.224 22.0586C165.51 22.0586 164.869 22.213 164.303 22.5217C163.741 22.835 163.287 23.2728 162.941 23.8349C162.596 24.4017 162.377 25.0652 162.285 25.8255ZM189.997 18.1881V23.1645C188.66 23.1645 187.451 23.3765 186.368 23.8004C185.286 24.2289 184.503 24.8578 184.019 25.6872V36.5731H178.49V18.43H183.57V22.0932C184.192 20.8721 184.998 19.916 185.988 19.2249C186.979 18.5337 188.015 18.1766 189.098 18.1536C189.352 18.1536 189.54 18.1536 189.665 18.1536C189.794 18.1536 189.904 18.1651 189.997 18.1881Z" fill="#13667F"/>
</g>
</g>
<defs>
<clipPath id="clip0_10_141">
<rect width="47" height="47.0065" fill="white"/>
</clipPath>
<clipPath id="clip1_10_141">
<rect width="47" height="47.0065" fill="white"/>
</clipPath>
<clipPath id="clip2_10_141">
<rect width="28.1288" height="28.2039" fill="white" transform="translate(9.43555 9.40131)"/>
</clipPath>
<clipPath id="clip3_10_141">
<rect width="28.1288" height="28.2039" fill="white" transform="translate(9.43555 9.40131)"/>
</clipPath>
<clipPath id="clip4_10_141">
<rect width="118" height="25.9187" fill="white" transform="translate(72 11)"/>
</clipPath>
<clipPath id="clip5_10_141">
<rect width="118" height="25.9187" fill="white" transform="translate(72 11)"/>
</clipPath>
</defs>
</svg>
